<?xml version="1.0" encoding="utf-8"?>
<!-- Svg Vector Icons : http://www.onlinewebfonts.com/icon -->
<!DOCTYPE svg PUBLIC "-//W3C//DTD SVG 1.1//EN" "http://www.w3.org/Graphics/SVG/1.1/DTD/svg11.dtd">
<svg version="1.1" xmlns="http://www.w3.org/2000/svg" xmlns:xlink="http://www.w3.org/1999/xlink" x="0px" y="0px" viewBox="0 0 1000 1000" enable-background="new 0 0 1000 1000" xml:space="preserve">
<metadata> Svg Vector Icons : http://www.onlinewebfonts.com/icon </metadata>
<g><path d="M714.5,745.2H285.7c-17,0-30.7,13.6-30.7,30.7c0,17,13.6,30.7,30.7,30.7h428.8c17,0,30.7-13.7,30.7-30.7C745.2,758.8,731.5,745.2,714.5,745.2L714.5,745.2L714.5,745.2z M714.5,592.1H285.7c-17,0-30.7,13.6-30.7,30.7s13.6,30.7,30.7,30.7h428.8c17,0,30.7-13.7,30.7-30.7S731.5,592.1,714.5,592.1L714.5,592.1L714.5,592.1z M806.5,132.6h-92V71.3H632C605.5,34.8,556.6,10,500.1,10c-56.5,0-105.4,24.8-131.9,61.3h-82.5v61.3h-92c-67.6,0-122.4,54.8-122.4,122.4v612.5c0,67.6,54.8,122.4,122.4,122.4h612.5c67.6,0,122.4-54.8,122.4-122.4V255.1C928.9,187.4,874.1,132.6,806.5,132.6L806.5,132.6L806.5,132.6z M347,132.6h68c0-33.8,38-61.3,85-61.3c47,0,85,27.5,85,61.3h68v122.4H347L347,132.6L347,132.6z M867.6,867.6c0,33.8-27.5,61.3-61.3,61.3H193.7c-33.8,0-61.3-27.5-61.3-61.3V255.1c0-33.8,27.5-61.3,61.3-61.3h92v122.4h428.8V193.7h92c33.8,0,61.3,27.5,61.3,61.3v612.5H867.6L867.6,867.6z M714.5,438.8H285.7c-17,0-30.7,13.7-30.7,30.7c0,17,13.6,30.7,30.7,30.7h428.8c17,0,30.7-13.6,30.7-30.7C745.2,452.6,731.5,438.8,714.5,438.8L714.5,438.8L714.5,438.8z"/></g>
</svg>