<?xml version="1.0" encoding="utf-8"?>
<!-- Svg Vector Icons : http://www.onlinewebfonts.com/icon -->
<!DOCTYPE svg PUBLIC "-//W3C//DTD SVG 1.1//EN" "http://www.w3.org/Graphics/SVG/1.1/DTD/svg11.dtd">
<svg version="1.1" xmlns="http://www.w3.org/2000/svg" xmlns:xlink="http://www.w3.org/1999/xlink" x="0px" y="0px" viewBox="0 0 1000 1000" enable-background="new 0 0 1000 1000" xml:space="preserve">
<metadata> Svg Vector Icons : http://www.onlinewebfonts.com/icon </metadata>
<g><path d="M346.9,500c-50.7,0-94-17.9-129.9-53.8c-35.9-35.9-53.8-79.2-53.8-129.9s17.9-94,53.8-129.9c35.9-35.9,79.2-53.8,129.9-53.8c50.7,0,94,17.9,129.9,53.8c35.9,35.9,53.8,79.2,53.8,129.9s-17.9,94-53.8,129.9C440.9,482.1,397.6,500,346.9,500L346.9,500z M806.3,561.3h168.4c4.1,0,7.7,1.5,10.8,4.5c3,3,4.5,6.6,4.5,10.8v91.9c0,4.1-1.5,7.7-4.5,10.8c-3,3-6.6,4.5-10.8,4.5H806.3v168.4c0,4.1-1.5,7.7-4.5,10.8c-3,3-6.6,4.5-10.8,4.5h-91.9c-4.1,0-7.7-1.5-10.8-4.5c-3-3-4.5-6.6-4.5-10.8V683.7H515.3c-4.1,0-7.7-1.5-10.8-4.5c-3-3-4.5-6.6-4.5-10.8v-91.9c0-4.1,1.5-7.7,4.5-10.8c3-3,6.6-4.5,10.8-4.5h168.4V392.8c0-4.1,1.5-7.7,4.5-10.8c3-3,6.6-4.5,10.8-4.5h91.9c4.1,0,7.7,1.5,10.8,4.5c3,3,4.5,6.6,4.5,10.8V561.3z M454.1,668.4c0,16.6,6.1,30.9,18.2,43.1c12.1,12.1,26.5,18.2,43.1,18.2h122.5v113.9c-21.7,16-49,23.9-81.8,23.9H137.8c-38.6,0-69.5-11-92.8-33c-23.3-22-34.9-52.3-34.9-90.9c0-16.9,0.6-33.4,1.7-49.5c1.1-16.1,3.3-33.5,6.7-52.2c3.3-18.7,7.6-36,12.7-51.9c5.1-15.9,12-31.5,20.6-46.7c8.6-15.2,18.5-28.1,29.7-38.8c11.2-10.7,24.8-19.2,40.9-25.6c16.1-6.4,33.9-9.6,53.4-9.6c6.1,0,12.3,2.7,18.7,8.1c25.2,19.5,49.8,34.1,73.9,43.8c24.1,9.7,50.3,14.6,78.7,14.6c28.4,0,54.6-4.9,78.7-14.6c24.1-9.7,48.7-24.3,73.9-43.8c6.4-5.4,12.6-8.1,18.7-8.1c42.1,0,76.7,15.3,103.8,45.9H515.3c-16.6,0-30.9,6.1-43.1,18.2c-12.1,12.1-18.2,26.5-18.2,43.1V668.4L454.1,668.4z"/></g>
</svg>