<?xml version="1.0" encoding="utf-8"?>
<!-- Svg Vector Icons : http://www.onlinewebfonts.com/icon -->
<!DOCTYPE svg PUBLIC "-//W3C//DTD SVG 1.1//EN" "http://www.w3.org/Graphics/SVG/1.1/DTD/svg11.dtd">
<svg version="1.1" xmlns="http://www.w3.org/2000/svg" xmlns:xlink="http://www.w3.org/1999/xlink" x="0px" y="0px" viewBox="0 0 1000 1000" enable-background="new 0 0 1000 1000" xml:space="preserve">
<metadata> Svg Vector Icons : http://www.onlinewebfonts.com/icon </metadata>
<g><g transform="translate(0.000000,511.000000) scale(0.100000,-0.100000)"><path d="M4580.4,4958.9c-49-47-51.1-59.2-51.1-335c0-283.9,0-286,53.1-326.8c36.8-28.6,83.8-42.9,143-42.9h89.9v-81.7v-81.7h-91.9c-71.5,0-106.2-12.3-143-51.1c-49-47-51.1-59.2-51.1-326.9c0-267.6,2.1-279.9,51.1-326.8c36.8-38.8,71.5-51.1,143-51.1h91.9v-81.7v-81.7h-89.9c-59.2,0-106.2-14.3-143-42.9c-53.1-40.9-53.1-42.9-53.1-326.8c0-275.8,2.1-288,51.1-335c36.8-38.8,71.5-51.1,143-51.1h91.9V2334v-81.7h-98.1c-77.6,0-108.3-10.2-143-47c-40.9-44.9-45-67.4-45-328.9c0-269.7,2.1-281.9,51.1-328.9c36.8-38.8,71.5-51.1,143-51.1h91.9V814.1V131.8l-65.4-98C4631.5-141.9,4241.3-432,3732.6-724.1C3322-961.1,3324.1-959,3177-924.3c-208.3,47-557.7,75.6-839.6,67.4c-261.5-6.1-263.5-6.1-314.6-65.4c-36.8-42.9-47-71.5-36.8-112.4c26.6-110.3,38.8-114.4,510.7-124.6c241-6.1,443.3-18.4,451.5-24.5c6.1-8.2-147.1-167.5-341.2-357.5c-414.7-406.5-602.6-629.2-717-858c-91.9-185.9-89.9-255.3,10.2-312.5c85.8-49,155.3-10.2,228.8,128.7c108.3,210.4,298.3,445.3,616.9,764c171.6,171.6,318.7,312.5,328.9,312.5c42.9,0-112.4-674.1-251.3-1092.9c-47-145-114.4-328.9-151.2-406.5c-79.7-173.6-81.7-241-10.2-296.2c100.1-77.6,183.9-38.8,255.4,116.4c200.2,447.4,371.8,1050,476,1679.2l44.9,275.8l306.4,173.6c567.9,322.8,907,557.7,1139.9,784.4c114.4,110.3,120.5,114.4,147.1,75.6c51.1-73.5,388.1-343.2,623.1-498.4c128.7-83.8,379.9-237,559.7-339.1c179.7-102.1,337.1-192,351.3-200.2c14.3-8.2,42.9-134.8,67.4-281.9c102.1-643.5,394.2-1603.6,537.2-1760.9c49-55.2,128.7-61.3,194.1-14.3c57.2,38.8,59.2,143,6.1,249.2c-71.5,143-222.7,586.3-294.2,872.3c-87.8,343.2-145,623-130.7,637.3c18.4,18.4,576.1-551.6,715-731.3c73.6-96,165.5-234.9,202.2-306.4c79.7-151.2,145-190,234.9-141c98.1,55.2,102.1,126.7,18.4,296.2c-114.4,230.8-318.7,476-723.2,870.2c-351.3,343.2-365.7,361.6-314.6,373.8c30.6,8.2,241.1,18.4,469.8,26.6c410.6,12.2,414.7,12.2,453.5,63.3c53.1,67.4,51.1,112.4-8.2,181.8l-49,57.2l-355.5-2c-347.3-2.1-567.9-24.5-794.6-81.7l-116.5-28.6l-261.4,145c-345.2,190-674.1,400.4-876.4,559.7c-183.9,145-253.3,212.5-314.6,316.6c-40.8,69.4-42.9,98-42.9,751.7v678.2h91.9c71.5,0,106.2,12.3,143,51.1c49,47,51.1,59.2,51.1,333c0,269.7-2.1,286-47,326.9c-34.7,32.7-73.5,44.9-143,44.9h-96v81.7v81.7h91.9c71.5,0,106.2,12.3,143,51.1c49,47,51.1,59.2,51.1,326.8c0,267.6-2.1,279.9-51.1,326.8c-36.8,38.8-71.5,51.1-143,51.1H5183v81.7v81.7h91.9c71.5,0,106.2,12.3,143,51.1c49,47,51.1,59.2,51.1,326.8c0,267.6-2.1,279.9-51.1,326.9c-36.8,38.8-71.5,51.1-143,51.1H5183v81.7v81.7h91.9c71.5,0,106.2,12.3,143,51.1c49,47,51.1,59.2,51.1,326.8c0,267.6-2.1,279.9-51.1,326.8c-49,51.1-53.1,51.1-418.8,51.1C4633.5,5010,4629.4,5010,4580.4,4958.9z"/><path d="M3767.4,1964.2c-136.9-32.7-281.9-120.5-729.3-439.2c-578.1-412.6-831.4-616.9-1162.3-937.6C1391.6,117.5,1042.3-342.1,795.1-842.6C568.3-1296.1,466.2-1633.2,362-2252.1c-83.8-492.3-108.3-817.1-96-1201.2c16.3-500.5,108.3-784.4,326.8-1005c273.7-271.7,633.3-369.7,1158.3-318.7c1047.9,106.2,1908,592.4,2204.2,1252.2c122.6,271.7,259.4,837.5,306.4,1270.6c22.5,185.9,69.5,1199.1,57.2,1209.3c-2,2.1-104.2-57.2-228.8-128.7c-122.6-73.5-263.5-151.2-310.5-171.6c-57.2-26.6-89.9-57.2-96-85.8c-200.2-1043.9-306.4-1417.7-525-1856.9c-67.4-134.8-122.6-214.5-171.6-253.3c-196.1-149.1-541.3-36.8-633.3,206.3c-40.8,104.2-32.7,141,147.1,639.4c61.3,173.6,108.3,318.7,102.1,322.8c-14.3,14.3-100.1-108.3-185.9-265.6c-145-259.4-271.7-363.6-441.2-363.6c-171.6,0-359.5,130.7-410.6,284c-75.6,230.8,155.3,668,580.1,1105.1l185.9,187.9h-153.2c-200.2,2-304.4,47-384,173.6c-71.5,114.4-94,239-61.3,367.7C1792-648.5,1982-575,2517.2-581.1c204.3-2,382-16.3,476-34.7c261.5-57.2,279.9-53.1,623.1,143C3939-289,4253.5-82.7,4312.8-17.3c30.6,34.7,34.7,124.6,38.8,911.1l4.1,872.3l-94,85.8C4122.8,1976.5,3969.6,2011.2,3767.4,1964.2z"/><path d="M5902.1,1962.2c-38.8-12.3-112.4-61.3-163.4-110.3l-96-85.8l4.1-872.3c4.1-811,6.1-874.3,40.9-913.1c57.2-65.4,418.8-300.3,729.3-473.9l283.9-161.4l247.2,38.8c304.3,47,978.5,55.2,1099,12.3c196.1-69.5,318.7-363.6,232.9-561.8c-63.3-149.1-204.3-228.8-449.4-251.3l-159.3-14.3l143-145c435.1-443.3,670.1-849.8,631.2-1088.8c-30.6-179.8-224.7-333-424.9-333c-185.9,0-232.9,38.8-439.2,363.6c-75.6,116.5-138.9,206.3-145.1,202.2c-4.1-6.1,49-155.3,118.5-333c151.2-386.1,165.4-500.5,77.6-633.3c-110.3-165.5-382-247.2-543.4-163.4c-87.8,44.9-138.9,114.4-251.2,349.3c-185.9,386.1-335,886.6-441.2,1483.1l-55.2,316.6l-153.2,81.7c-83.8,42.9-232.9,126.7-328.9,185.9c-96,57.2-177.7,102.1-181.8,100.1c-14.3-16.3,42.9-1092.9,67.4-1291c59.2-441.3,181.8-931.5,298.2-1188.9c302.4-668,1170.5-1156.2,2230.7-1252.2c331-30.6,559.7-6.1,774.2,81.7c371.8,155.2,580.2,439.2,659.8,894.7c79.7,457.6-10.2,1446.3-194.1,2142.9C9252.3-673,8608.8,238,7614,1036.8c-373.9,300.3-1080.7,798.7-1233.9,870.2C6233,1976.5,6016.5,2001,5902.1,1962.2z"/></g></g>
</svg>