<?xml version="1.0" encoding="utf-8"?>
<!-- Svg Vector Icons : http://www.onlinewebfonts.com/icon -->
<!DOCTYPE svg PUBLIC "-//W3C//DTD SVG 1.1//EN" "http://www.w3.org/Graphics/SVG/1.1/DTD/svg11.dtd">
<svg version="1.1" xmlns="http://www.w3.org/2000/svg" xmlns:xlink="http://www.w3.org/1999/xlink" x="0px" y="0px" viewBox="0 0 1000 1000" enable-background="new 0 0 1000 1000" xml:space="preserve">
<metadata> Svg Vector Icons : http://www.onlinewebfonts.com/icon </metadata>
<g><path d="M959.3,861.4l-6.2-5.7c-8.9-38.7-38.7-88-83.5-132.8c-55-55.1-116.9-87.5-157.4-86.3l-300-273l-65.1,65.1L607.4,731c-9.1,39.6,23.9,108.5,84.7,169.3c45,45,94.6,74.9,133.4,83.6l5.2,6.1l4.4-4.3c19.5,2.7,35.8-0.6,46.1-11l62.7-62.7c10.5-10.4,13.7-26.6,11-46.2L959.3,861.4z"/><path d="M207.2,238l28.6-28.6l165.3,165.2l-28.7,28.6L207.2,238z"/><path d="M140.2,204.3l0.1,0.2l0.1-0.1l57.3,43.1l47.6-47.6l-43-57.3v0l-0.2-0.1l-0.1-0.2v0l-79.6-65.4l-47.6,47.7l65.4,79.5h-0.1L140.2,204.3z"/><path d="M965.2,161.8L812.6,314.3L669.1,170.9L821.7,18.4c-71.4-20.8-151.5-3-207.7,53.2c-62.8,62.8-77.5,155.2-44.5,232.1l-543,543.1L136.8,957l543-543.1c76.9,33,169.3,18.3,232-44.4C968.1,313.2,985.9,233.1,965.2,161.8z"/></g>
</svg>